<?xml version="1.0" encoding="utf-8"?>
<svg xmlns="http://www.w3.org/2000/svg" viewBox="0 0 24 24">
  <linearGradient id="RBZbGDlrJgwaS0JPaDcoma" x1="32.36" x2="15.528" y1="-594.36" y2="-577.528" gradientTransform="matrix(1 0 0 -1 0 -562)" gradientUnits="userSpaceOnUse">
    <stop offset="0" stop-color="#fff"/>
    <stop offset="0.242" stop-color="#f2f2f2"/>
    <stop offset="1" stop-color="#ccc"/>
  </linearGradient>
  <g transform="matrix(0.749996, 0, 0, 0.749996, -3.214843, -3.542389)">
    <g transform="matrix(0.069614, 0, 0, 0.069614, 6.178815, -2.710896)">
      <g transform="matrix(9.033635, 0, 0, 9.033635, 178.656771, 298.439366)" style="transform-origin: 24px 23.92px;">
        <circle cx="24" cy="24" r="12" fill="url(#RBZbGDlrJgwaS0JPaDcoma)"/>
        <path fill="#808991" d="M43.407,19.243c-2.389-0.029-4.702-1.274-5.983-3.493c-1.233-2.136-1.208-4.649-0.162-6.693 c-2.125-1.887-4.642-3.339-7.43-4.188C28.577,6.756,26.435,8,24,8s-4.577-1.244-5.831-3.131c-2.788,0.849-5.305,2.301-7.43,4.188 c1.046,2.044,1.071,4.557-0.162,6.693c-1.281,2.219-3.594,3.464-5.983,3.493C4.22,20.77,4,22.358,4,24 c0,1.284,0.133,2.535,0.364,3.752c2.469-0.051,4.891,1.208,6.213,3.498c1.368,2.37,1.187,5.204-0.22,7.345 c2.082,1.947,4.573,3.456,7.34,4.375C18.827,40.624,21.221,39,24,39s5.173,1.624,6.303,3.971c2.767-0.919,5.258-2.428,7.34-4.375 c-1.407-2.141-1.588-4.975-0.22-7.345c1.322-2.29,3.743-3.549,6.213-3.498C43.867,26.535,44,25.284,44,24 C44,22.358,43.78,20.77,43.407,19.243z M36,24c0,1.626-0.327,3.176-0.913,4.59l-5.166-3.66C29.968,24.626,30,24.317,30,24 c0-2.611-1.671-4.827-4-5.651V12.18C31.673,13.134,36,18.056,36,24z M22,12.18v6.169c-2.329,0.825-4,3.04-4,5.651 c0,0.317,0.032,0.626,0.079,0.93l-5.166,3.66C12.327,27.176,12,25.626,12,24C12,18.056,16.327,13.134,22,12.18z M24,36 c-3.561,0-6.75-1.56-8.948-4.023l4.953-3.509C21.066,29.418,22.464,30,24,30s2.934-0.582,3.995-1.532l4.953,3.509 C30.75,34.44,27.561,36,24,36z"/>
      </g>
    </g>
  </g>
  <g transform="matrix(0.062895, 0, 0, 0.061759, -4.100753, -8.757101)">
    <linearGradient id="d" x1="256" x2="256" y1="493.17" y2="332.86" gradientUnits="userSpaceOnUse">
      <stop offset="0" stop-color="#d33535"/>
      <stop offset="1" stop-color="#f75c5c"/>
    </linearGradient>
    <linearGradient id="gradient-2" x1="256" x2="256" y1="457.72" y2="370.86" gradientUnits="userSpaceOnUse">
      <stop offset="0" stop-color="#f75c5c"/>
      <stop offset="1" stop-color="#f79797"/>
    </linearGradient>
    <path fill="url(#d)" d="M366.65 332.86h-221.3c-44.2 0-80.15 35.96-80.15 80.15s35.96 80.15 80.15 80.15h221.29c44.2 0 80.15-35.96 80.15-80.15s-35.96-80.15-80.15-80.15z" opacity="1" data-original="url(#d)"/>
    <path fill="url(#gradient-2)" d="M293.61 436.01a12.504 12.504 0 0 1-10.84 6.25c-2.12 0-4.27-.54-6.24-1.68l-8.04-4.64v9.28c0 6.9-5.6 12.5-12.5 12.5s-12.5-5.6-12.5-12.5v-9.28l-8.04 4.64a12.423 12.423 0 0 1-6.24 1.68c-4.32 0-8.52-2.24-10.84-6.25-3.45-5.98-1.4-13.62 4.58-17.08l8.04-4.64-8.04-4.64c-5.98-3.45-8.03-11.1-4.58-17.08s11.1-8.03 17.08-4.58l8.04 4.64v-9.28c0-6.9 5.6-12.5 12.5-12.5s12.5 5.6 12.5 12.5v9.28l8.04-4.64c5.98-3.45 13.62-1.4 17.08 4.58s1.4 13.62-4.58 17.08l-8.04 4.64 8.04 4.64c5.98 3.45 8.03 11.1 4.58 17.08zm87.72-17.08-8.04-4.64 8.04-4.64c5.98-3.45 8.03-11.1 4.58-17.08s-11.1-8.03-17.08-4.58l-8.04 4.64v-9.28c0-6.9-5.6-12.5-12.5-12.5s-12.5 5.6-12.5 12.5v9.28l-8.04-4.64c-5.98-3.45-13.62-1.4-17.08 4.58s-1.4 13.62 4.58 17.08l8.04 4.64-8.04 4.64c-5.98 3.45-8.03 11.1-4.58 17.08 2.32 4.01 6.52 6.25 10.84 6.25 2.12 0 4.27-.54 6.24-1.68l8.04-4.64v9.28c0 6.9 5.6 12.5 12.5 12.5s12.5-5.6 12.5-12.5v-9.28l8.04 4.64c1.97 1.14 4.12 1.68 6.24 1.68 4.32 0 8.52-2.24 10.84-6.25 3.45-5.98 1.4-13.62-4.58-17.08zm-184.59 0-8.04-4.64 8.04-4.64c5.98-3.45 8.03-11.1 4.58-17.08s-11.1-8.03-17.08-4.58l-8.04 4.64v-9.28c0-6.9-5.6-12.5-12.5-12.5s-12.5 5.6-12.5 12.5v9.28l-8.04-4.64c-5.98-3.45-13.62-1.4-17.08 4.58s-1.4 13.62 4.58 17.08l8.04 4.64-8.04 4.64c-5.98 3.45-8.03 11.1-4.58 17.08 2.32 4.01 6.52 6.25 10.84 6.25 2.12 0 4.27-.54 6.24-1.68l8.04-4.64v9.28c0 6.9 5.6 12.5 12.5 12.5s12.5-5.6 12.5-12.5v-9.28l8.04 4.64c1.97 1.14 4.12 1.68 6.24 1.68 4.32 0 8.52-2.24 10.84-6.25 3.45-5.98 1.4-13.62-4.58-17.08z" opacity="1" data-original="url(#e)"/>
  </g>
</svg>